# AST/ASF file generated using VICON BodyLanguage
# -----------------------------------------------
:version 1.10
:name VICON
:units
  mass 1.0
  length 0.45
  angle deg
:documentation
   .ast/.asf automatically generated from VICON data using
   VICON BodyBuilder and BodyLanguage model FoxedUp or BRILLIANT.MOD
:root
   order TX TY TZ RX RY RZ
   axis XYZ
   position 0 0 0  
   orientation 0 0 0 
:bonedata
  begin
     id 1 
     name lhipjoint
     direction 0.643272 -0.706573 0.294883 
     length 2.58915 
     axis 0 0 0  XYZ
  end
  begin
     id 2 
     name lfemur
     direction 0.34202 -0.939693 0  
     length 7.06802  
     axis 0 0 20  XYZ
    dof rx ry rz
    limits (-160.0 20.0)
           (-70.0 70.0)
           (-60.0 70.0)
  end
  begin
     id 3 
     name ltibia
     direction 0.34202 -0.939693 0   
     length 7.94147   
     axis 0 0 20   XYZ
    dof rx
    limits (-10.0 170.0)
  end
  begin
     id 4 
     name lfoot
     direction 0.0435058 -0.119531 0.991877   
     length 1.8399   
     axis -90 7.62852e-016 20   XYZ
    dof rx rz
    limits (-45.0 90.0)
           (-70.0 20.0)
  end
  begin
     id 5 
     name ltoes
     direction 1.53505e-011 -4.22157e-011 1   
     length 0.934412   
     axis -90 7.62852e-016 20   XYZ
    dof rx
    limits (-90.0 20.0)
  end
  begin
     id 6 
     name rhipjoint
     direction -0.636801 -0.711547 0.296959   
     length 2.57105  
     axis 0 0 0  XYZ 
  end
  begin
     id 7 
     name rfemur
     direction -0.34202 -0.939693 0   
     length 7.03285   
     axis 0 0 -20   XYZ
    dof rx ry rz
    limits (-160.0 20.0)
           (-70.0 70.0)
           (-70.0 60.0)
  end
  begin
     id 8 
     name rtibia
     direction -0.34202 -0.939693 0   
     length 7.99111   
     axis 0 0 -20   XYZ
    dof rx
    limits (-10.0 170.0)
 end
 begin
     id 9 
     name rfoot
     direction -0.0783088 -0.215152 0.973436   
     length 1.98785  
     axis -90 -7.62852e-016 -20   XYZ
    dof rx rz
    limits (-45.0 90.0)
           (-20.0 70.0)
  end
  begin
     id 10 
     name rtoes
     direction -1.53606e-011 -4.21943e-011 1   
     length 1.001   
     axis -90 -7.62852e-016 -20   XYZ
    dof rx
    limits (-90.0 20.0)
  end
  begin
     id 11 
     name lowerback
     direction 0.00141527 0.998403 -0.0564763   
     length 2.30486   
     axis 0 0 0   XYZ
    dof rx ry rz
    limits (-20.0 45.0)
           (-30.0 30.0)
           (-30.0 30.0)
  end
  begin
     id 12 
     name upperback
     direction 0.0125137 0.999915 0.00361315   
     length 2.30697   
     axis 0 0 0   XYZ
    dof rx ry rz
    limits (-20.0 45.0)
           (-30.0 30.0)
           (-30.0 30.0)
  end
  begin
     id 13 
     name thorax
     direction 0.0136417 0.999471 0.0295116   
     length 2.31005   
     axis 0 0 0   XYZ
    dof rx ry rz
    limits (-20.0 45.0)
           (-30.0 30.0)
           (-30.0 30.0)
  end
  begin
     id 14 
     name lowerneck
     direction 0.0766806 0.997047 0.00422047   
     length 1.68825   
     axis 0 0 0   XYZ
    dof rx ry rz
    limits (-20.0 45.0)
           (-30.0 30.0)
           (-30.0 30.0)
  end
  begin
     id 15 
     name upperneck
     direction -0.143512 0.985106 -0.0947088   
     length 1.69772   
     axis 0 0 0   XYZ
    dof rx ry rz
    limits (-20.0 45.0)
           (-30.0 30.0)
           (-30.0 30.0)
  end
  begin
     id 16
     name head
     direction -0.0539128 0.997849 -0.0372864  
     length 1.71187  
     axis 0 0 0   XYZ
    dof rx ry rz
    limits (-20.0 45.0)
           (-30.0 30.0)
           (-30.0 30.0)
  end
  begin
     id 17 
     name lclavicle
     direction 0.978251 0.207416 -0.00165765  
     length 3.35399  
     axis 0 0 0   XYZ
    dof ry rz
    limits (-20.0 10.0)
           (0.0 20.0)
  end
  begin
     id 18 
     name lhumerus
     direction 1 -4.48966e-011 -1.32191e-028   
     length 5.70706   
     axis 180 -30 -90   XYZ
    dof rx ry rz
    limits (-60.0 90.0)
           (-90.0 90.0)
           (-90.0 90.0)
  end
  begin
     id 19
     name lradius
     direction 1 -4.48976e-011 9.36106e-027   
     length 3.33243   
     axis 180 -30 -90   XYZ
    dof rx
    limits (-10.0 170.0)
  end
  begin
     id 20
     name lwrist
     direction 1 -4.48976e-011 1.1555e-026   
     length 1.66621   
     axis -5.7412e-015 90 90   XYZ
    dof ry
    limits (-180.0 0.0)
 end
  begin
     id 21 
     name lhand
     direction 1 -4.48939e-011 2.31113e-026   
     length 0.792687   
     axis -1.47463e-014 90 90   XYZ
    dof rx rz
    limits (-90.0 90.0)
           (-45.0 45.0)
  end
  begin
     id 22 
     name lfingers
     direction 1 -4.48866e-011 4.62274e-026   
     length 0.639085   
     axis -2.94925e-014 90 90   XYZ
    dof rx
    limits (0.0 90.0)
  end
  begin
     id 23
     name lthumb
     direction 0.707107 -6.34847e-011 0.707107   
     length 0.917601   
     axis -90 45 -6.68868e-015   XYZ
    dof rx rz
    limits (-45.0 45.0)
           (-45.0 45.0)
  end
  begin
     id 24 
     name rclavicle
     direction -0.981813 0.185514 0.0403428   
     length 3.47271  
     axis 0 0 0   XYZ 
    dof ry rz
    limits (-10.0 20.0)
           (-20.0 0.0)
  end
  begin
     id 25 
     name rhumerus
     direction -1 -4.48972e-011 -6.58544e-029  
     length 5.88176   
     axis 180 30 90   XYZ
    dof rx ry rz
    limits (-90.0 60.0)
           (-90.0 90.0)
           (-90.0 90.0)
  end
  begin
     id 26 
     name rradius
     direction -1 -4.48964e-011 8.36306e-027   
     length 3.28156   
     axis 180 30 90   XYZ
    dof rx
    limits (-10.0 170.0)
  end
  begin
     id 27 
     name rwrist
     direction -1 -4.48903e-011 1.15562e-026   
     length 1.64078   
     axis -5.7412e-015 -90 -90   XYZ
    dof ry
    limits (-180.0 0.0)
  end
  begin
     id 28
     name rhand
     direction -1 -4.49055e-011 2.31074e-026   
     length 0.863125   
     axis -1.47463e-014 -90 -90   XYZ
    dof rx rz
    limits (-90.0 90.0)
           (-45.0 45.0)
  end
  begin
     id 29
     name rfingers
     direction -1 -4.48994e-011 4.62188e-026   
     length 0.695873   
     axis -2.94925e-014 -90 -90   XYZ
    dof rx
    limits (0.0 90.0)
  end
  begin
     id 30
     name rthumb
     direction -0.707107 -6.35058e-011 0.707107   
     length 0.999139   
     axis -90 -45 6.68868e-015   XYZ
    dof rx rz
    limits (-45.0 45.0)
           (-45.0 45.0)
  end
:hierarchy
  begin
    root lhipjoint rhipjoint lowerback
    lhipjoint lfemur
    lfemur ltibia
    ltibia lfoot
    lfoot ltoes
    rhipjoint rfemur
    rfemur rtibia
    rtibia rfoot
    rfoot rtoes
    lowerback upperback
    upperback thorax
    thorax lowerneck lclavicle rclavicle
    lowerneck upperneck
    upperneck head
    lclavicle lhumerus
    lhumerus lradius
    lradius lwrist
    lwrist lhand lthumb
    lhand lfingers
    rclavicle rhumerus
    rhumerus rradius
    rradius rwrist
    rwrist rhand rthumb
    rhand rfingers
  end

#!OML:ASF \\Waltz\H\Terrain\Patient Classification 1\Animal2\Wednesday\Animal2.ASF
:FULLY-SPECIFIED
:DEGREES
341
root 2.19832 17.4926 -19.2504 0.856456 -2.37799 9.46561
lowerback 5.41796 -5.36161 -4.5707
upperback -2.57161 -7.82428 -5.12973
thorax -5.84228 -3.80901 -1.99847
lowerneck 11.3931 9.50897 15.18
upperneck -16.4803 12.5446 -20.4725
head -4.29582 6.9282 -9.75422
rclavicle -1.20886e-014 3.89618e-014
rhumerus 16.0459 40.0328 -59.1642
rradius 94.2038
rwrist -20.6153
rhand -4.79648 18.6487
rfingers 7.12502
rthumb 20.9889 -10.2356
lclavicle -1.20886e-014 3.89618e-014
lhumerus 23.1125 11.0194 18.3973
lradius 70.1259
lwrist -3.9748
lhand -48.3703 16.3138
lfingers 7.12502
lthumb -21.0242 45.1942
rfemur -23.5293 9.45041 11.7656
rtibia 46.0898
rfoot -21.5407 -4.68207
rtoes 24.892
lfemur -3.00471 2.38349 -30.6362
ltibia 24.4008
lfoot -15.2645 -13.8271
ltoes -3.49364
342
root 2.1692 17.5001 -19.2216 1.07864 -2.32735 9.12822
lowerback 5.15387 -5.23599 -4.42288
upperback -2.46552 -7.60593 -5.00274
thorax -5.5764 -3.7098 -1.99881
lowerneck 11.3833 9.33068 15.3125
upperneck -16.7887 12.2656 -20.6696
head -4.41157 6.79796 -9.86972
rclavicle -1.74806e-014 -4.77083e-014
rhumerus 16.1651 39.5176 -58.8958
rradius 94.1249
rwrist -20.03
rhand -4.30478 19.3323
rfingers 7.12502
rthumb 21.4613 -9.49895
lclavicle -1.74806e-014 -4.77083e-014
lhumerus 23.4808 11.1533 17.9885
lradius 70.2745
lwrist -4.07329
lhand -48.468 16.3021
lfingers 7.12502
lthumb -21.1181 45.172
rfemur -23.3546 9.48076 12.2555
rtibia 45.5565
rfoot -21.7233 -4.78439
rtoes 24.7895
lfemur -3.22419 1.63587 -30.2693
ltibia 24.648
lfoot -15.7982 -12.8851
ltoes -5.95808
343
root 2.13996 17.5077 -19.186 1.26518 -2.27442 8.70936
lowerback 5.04041 -5.06451 -4.16755
upperback -2.54587 -7.3479 -4.88013
thorax -5.60743 -3.58823 -2.04149
lowerneck 11.559 8.9641 15.9199
upperneck -16.7497 11.8331 -21.1691
head -4.43084 6.59796 -10.1589
rclavicle -2.10091e-014 1.03368e-014
rhumerus 15.6397 39.1999 -58.9567
rradius 94.1623
rwrist -19.7655
rhand -4.23201 19.7166
rfingers 7.12502
rthumb 21.5312 -9.10662
lclavicle -2.10091e-014 1.03368e-014
lhumerus 23.8138 10.9248 17.6003
lradius 70.4114
lwrist -4.10289
lhand -48.6302 16.8603
lfingers 7.12502
lthumb -21.2739 45.7127
rfemur -23.1152 9.59361 12.8369
rtibia 44.957
rfoot -21.8507 -4.92842
rtoes 25.5044
lfemur -3.36297 1.19543 -29.7565
ltibia 24.8624
lfoot -16.2385 -12.3244
ltoes -7.17961
344
root 2.11389 17.5022 -19.1351 1.25846 -2.23718 8.61006
lowerback 5.03315 -4.92402 -4.28947
upperback -2.76439 -7.17505 -4.72885
thorax -5.79673 -3.48947 -1.82649
lowerneck 11.9011 8.59095 16.3537
upperneck -16.4074 11.4155 -21.6543
head -4.40596 6.42167 -10.4102
rclavicle 2.54941e-014 2.94201e-014
rhumerus 15.0966 39.3298 -59.0077
rradius 94.3495
rwrist -19.7059
rhand -4.02526 19.9423
rfingers 7.12502
rthumb 21.7297 -8.85803
lclavicle 2.54941e-014 2.94201e-014
lhumerus 23.6528 10.5257 17.1832
lradius 70.6446
lwrist -3.94725
lhand -48.7053 17.0841
lfingers 7.12502
lthumb -21.346 45.9284
rfemur -22.6244 9.45117 13.0652
rtibia 44.3401
rfoot -21.9 -4.78709
rtoes 26.0253
lfemur -3.27717 0.935014 -29.6066
ltibia 25.1613
lfoot -16.58 -12.0695
ltoes -6.85782
345
root 2.08776 17.4978 -19.0879 1.29985 -2.20145 8.2121
lowerback 5.06138 -4.7644 -4.33364
upperback -2.6852 -6.93429 -4.31937
thorax -5.66652 -3.36027 -1.40251
lowerneck 11.296 8.57372 16.1107
upperneck -16.2666 11.2662 -21.7587
head -4.2954 6.34496 -10.3533
rclavicle -6.36484e-014 -6.20208e-014
rhumerus 15.4582 38.9975 -58.2892
rradius 94.4447
rwrist -19.4167
rhand -3.56855 20.3046
rfingers 7.12502
rthumb 22.1682 -8.4443
lclavicle -6.36484e-014 -6.20208e-014
lhumerus 23.7138 10.7782 17.0259
lradius 70.7934
lwrist -3.88008
lhand -48.6297 16.588
lfingers 7.12502
lthumb -21.2734 45.4405
rfemur -22.1062 9.20855 13.6142
rtibia 43.7355
rfoot -21.9068 -4.57627
rtoes 25.7031
lfemur -3.27554 0.477112 -29.1791
ltibia 25.5581
lfoot -16.8032 -11.7317
ltoes -5.42201
346
root 2.06141 17.4986 -19.0484 1.51347 -2.20172 7.46416
lowerback 5.10103 -4.53438 -4.16955
upperback -2.70554 -6.58134 -3.70596
thorax -5.6505 -3.17678 -0.886575
lowerneck 10.6643 8.46721 15.8587
upperneck -16.0717 10.9939 -21.8988
head -4.1869 6.20848 -10.3062
rclavicle 3.80797e-014 1.94809e-014
rhumerus 15.6106 38.6261 -57.3989
rradius 94.5402
rwrist -19.1962
rhand -3.17187 20.4481
rfingers 7.12502
rthumb 22.549 -8.25516
lclavicle 3.80797e-014 1.94809e-014
lhumerus 23.9143 10.9061 17.011
lradius 70.8731
lwrist -3.90516
lhand -48.4935 16.3536
lfingers 7.12502
lthumb -21.1426 45.2208
rfemur -21.7503 8.93037 14.5064
rtibia 43.1833
rfoot -22.2761 -4.02688
rtoes 26.2453
lfemur -3.55138 0.0887174 -28.3772
ltibia 26.081
lfoot -17.0918 -11.175
ltoes -5.26303
347
root 2.03559 17.4929 -19.0114 1.63043 -2.17421 6.70243
lowerback 5.13232 -4.3381 -3.79956
upperback -2.73211 -6.26883 -3.25937
thorax -5.68357 -3.02506 -0.652461
lowerneck 10.5727 8.27559 15.6849
upperneck -16.1691 10.6666 -21.9564
head -4.272 6.05717 -10.3067
rclavicle -8.76516e-015 -7.15625e-015
rhumerus 15.5117 38.3119 -56.9509
rradius 94.452
rwrist -18.9535
rhand -2.88097 20.7833
rfingers 7.12502
rthumb 22.8282 -7.88573
lclavicle -8.76516e-015 -7.15625e-015
lhumerus 24.1299 10.9463 16.7757
lradius 71.0376
lwrist -3.73097
lhand -48.3585 16.3168
lfingers 7.12502
lthumb -21.0128 45.1985
rfemur -21.3757 8.56731 15.395
rtibia 42.6524
rfoot -22.6258 -3.09957
rtoes 28.4824
lfemur -3.87754 -0.112567 -27.5512
ltibia 26.8363
lfoot -17.5931 -10.375
ltoes -7.23484
348
root 2.01007 17.4865 -18.976 1.68964 -2.07929 6.10132
lowerback 4.93739 -4.22277 -3.42936
upperback -2.46152 -6.04708 -3.03426
thorax -5.30042 -2.93302 -0.669832
lowerneck 10.0497 8.16934 15.8706
upperneck -16.3032 10.4418 -22.178
head -4.23455 5.93062 -10.391
rclavicle 3.66385e-014 -1.15295e-014
rhumerus 15.8794 37.6558 -56.6636
rradius 94.2656
rwrist -18.4649
rhand -2.70887 21.0219
rfingers 7.12502
rthumb 22.9933 -7.62664
lclavicle 3.66385e-014 -1.15295e-014
lhumerus 24.4604 11.4665 16.3348
lradius 71.258
lwrist -3.52722
lhand -48.2367 16.1177
lfingers 7.12502
lthumb -20.8959 45.0123
rfemur -21.0033 8.06426 16.0975
rtibia 42.0686
rfoot -22.4928 -2.35726
rtoes 29.4705
lfemur -4.29889 -0.296728 -26.8901
ltibia 27.8611
lfoot -17.9967 -9.72083
ltoes -8.32993
349
root 1.98216 17.4843 -18.9424 1.84541 -2.04614 5.5464
lowerback 4.81765 -4.27646 -3.11849
upperback -2.80913 -6.08929 -2.67701
thorax -5.58856 -2.95156 -0.462891
lowerneck 11.53 7.89597 15.8113
upperneck -16.7266 10.162 -22.3921
head -4.66966 5.87832 -10.6033
rclavicle -4.50868e-014 -3.97569e-016
rhumerus 15.5055 38.1377 -56.8412
rradius 94.3571
rwrist -18.2625
rhand -2.58669 20.81
rfingers 7.12502
rthumb 23.1106 -7.82398
lclavicle -4.50868e-014 -3.97569e-016
lhumerus 23.7289 11.1378 15.5534
lradius 71.5079
lwrist -3.43381
lhand -48.2396 16.5242
lfingers 7.12502
lthumb -20.8987 45.4184
rfemur -20.7446 7.64774 16.7332
rtibia 41.449
rfoot -22.2518 -1.69499
rtoes 29.0493
lfemur -4.92461 -0.390838 -26.2642
ltibia 29.0814
lfoot -18.578 -9.05152
ltoes -10.2135
350
root 1.95099 17.4841 -18.9128 1.96627 -2.04714 4.67374
lowerback 4.92946 -4.16293 -2.66447
upperback -3.06646 -5.89511 -2.2001
thorax -5.9172 -2.85569 -0.217642
lowerneck 12.1751 7.63897 15.8071
upperneck -16.7405 9.8724 -22.4703
head -4.84568 5.77037 -10.6861
rclavicle -2.07047e-014 2.5842e-015
rhumerus 14.9919 38.303 -56.8603
rradius 94.37
rwrist -18.3768
rhand -3.32857 21.2433
rfingers 7.12502
rthumb 22.3986 -7.47805
lclavicle -2.07047e-014 2.5842e-015
lhumerus 23.6027 10.8853 15.2161
lradius 71.5931
lwrist -3.55157
lhand -48.0891 17.0615
lfingers 7.12502
lthumb -20.754 45.9717
rfemur -20.4293 7.39462 17.7525
rtibia 40.8015
rfoot -22.0109 -0.862216
rtoes 29.4859
lfemur -5.62906 -0.33144 -25.2503
ltibia 30.4627
lfoot -19.3634 -8.43178
ltoes -12.4274
351
root 1.91907 17.4808 -18.8853 1.93897 -1.98788 3.93993
lowerback 5.10917 -3.96425 -2.44334
upperback -3.07464 -5.59461 -1.76153
thorax -6.00573 -2.70382 0.0989812
lowerneck 12.1922 7.40136 15.8018
upperneck -16.7144 9.53834 -22.521
head -4.90841 5.61131 -10.7087
rclavicle 2.26615e-014 1.45113e-014
rhumerus 14.6675 37.841 -56.7811
rradius 94.1388
rwrist -17.7003
rhand -3.52838 22.482
rfingers 7.12502
rthumb 22.2068 -6.26231
lclavicle 2.26615e-014 1.45113e-014
lhumerus 23.8297 10.9321 15.1871
lradius 71.6951
lwrist -3.65767
lhand -47.8433 16.7195
lfingers 7.12502
lthumb -20.5178 45.6553
rfemur -19.9489 6.84728 18.6798
rtibia 40.1609
rfoot -21.7321 -0.10099
rtoes 29.9367
lfemur -6.2692 -0.29996 -24.3743
ltibia 31.9997
lfoot -19.778 -7.94732
ltoes -14.3616
